<mxfile host="app.diagrams.net" modified="2023-11-05T15:46:50.442Z" agent="Mozilla/5.0 (Windows NT 10.0; Win64; x64) AppleWebKit/537.36 (KHTML, like Gecko) Chrome/119.0.0.0 Safari/537.36" etag="yW7YimBvBMJFEFsy193P" version="22.0.8" type="device">
  <diagram name="Strona-1" id="TQj_km7BCmCdhCnHU-Kv">
    <mxGraphModel dx="819" dy="433" grid="1" gridSize="10" guides="1" tooltips="1" connect="1" arrows="1" fold="1" page="1" pageScale="1" pageWidth="827" pageHeight="1169" math="0" shadow="0">
      <root>
        <mxCell id="0" />
        <mxCell id="1" parent="0" />
        <mxCell id="V-yhbQo1DXcv5XTAtJDy-1" value="{u&lt;span style=&quot;font-size: 10px;&quot;&gt;1, u2, u3, ... , u33158, u33159}&lt;/span&gt;&amp;nbsp;&amp;nbsp;" style="rounded=0;whiteSpace=wrap;html=1;" vertex="1" parent="1">
          <mxGeometry x="80" y="420" width="630" height="40" as="geometry" />
        </mxCell>
        <mxCell id="V-yhbQo1DXcv5XTAtJDy-32" value="&amp;lt;u&lt;sub&gt;1&lt;/sub&gt;, u&lt;sub&gt;168&lt;/sub&gt;&amp;gt;" style="rounded=0;whiteSpace=wrap;html=1;fillColor=#dae8fc;strokeColor=#6c8ebf;" vertex="1" parent="1">
          <mxGeometry x="80" y="480" width="240" height="40" as="geometry" />
        </mxCell>
        <mxCell id="V-yhbQo1DXcv5XTAtJDy-33" value="&amp;lt;u&lt;sub style=&quot;border-color: var(--border-color);&quot;&gt;169&lt;/sub&gt;, u&lt;sub style=&quot;border-color: var(--border-color);&quot;&gt;192&lt;/sub&gt;&amp;gt;" style="rounded=0;whiteSpace=wrap;html=1;fillColor=#fff2cc;strokeColor=#d6b656;" vertex="1" parent="1">
          <mxGeometry x="320" y="480" width="80" height="40" as="geometry" />
        </mxCell>
        <mxCell id="V-yhbQo1DXcv5XTAtJDy-34" value="&amp;lt;u&lt;span style=&quot;font-size: 10px;&quot;&gt;&lt;sub&gt;24&lt;/sub&gt;&lt;/span&gt;, u&lt;span style=&quot;font-size: 10px;&quot;&gt;&lt;sub&gt;192&lt;/sub&gt;&lt;/span&gt;&amp;gt;" style="rounded=0;whiteSpace=wrap;html=1;fillColor=#dae8fc;strokeColor=#6c8ebf;" vertex="1" parent="1">
          <mxGeometry x="160" y="540" width="240" height="40" as="geometry" />
        </mxCell>
        <mxCell id="V-yhbQo1DXcv5XTAtJDy-35" value="&amp;lt;u&lt;span style=&quot;font-size: 10px;&quot;&gt;&lt;sub&gt;193&lt;/sub&gt;&lt;/span&gt;, u&lt;span style=&quot;font-size: 10px;&quot;&gt;&lt;sub&gt;216&lt;/sub&gt;&lt;/span&gt;&amp;gt;" style="rounded=0;whiteSpace=wrap;html=1;fillColor=#fff2cc;strokeColor=#d6b656;" vertex="1" parent="1">
          <mxGeometry x="400" y="540" width="80" height="40" as="geometry" />
        </mxCell>
        <mxCell id="V-yhbQo1DXcv5XTAtJDy-36" value="&amp;lt;u&lt;span style=&quot;font-size: 8.33333px;&quot;&gt;&lt;sub&gt;48&lt;/sub&gt;&lt;/span&gt;, u&lt;span style=&quot;font-size: 8.33333px;&quot;&gt;&lt;sub&gt;216&lt;/sub&gt;&lt;/span&gt;&amp;gt;" style="rounded=0;whiteSpace=wrap;html=1;fillColor=#dae8fc;strokeColor=#6c8ebf;" vertex="1" parent="1">
          <mxGeometry x="240" y="600" width="240" height="40" as="geometry" />
        </mxCell>
        <mxCell id="V-yhbQo1DXcv5XTAtJDy-37" value="&amp;lt;u&lt;span style=&quot;font-size: 8.33333px;&quot;&gt;&lt;sub&gt;217&lt;/sub&gt;&lt;/span&gt;, u&lt;span style=&quot;font-size: 8.33333px;&quot;&gt;&lt;sub&gt;240&lt;/sub&gt;&lt;/span&gt;&amp;gt;" style="rounded=0;whiteSpace=wrap;html=1;fillColor=#fff2cc;strokeColor=#d6b656;" vertex="1" parent="1">
          <mxGeometry x="480" y="600" width="80" height="40" as="geometry" />
        </mxCell>
        <mxCell id="V-yhbQo1DXcv5XTAtJDy-39" value="szereg uczÄ…cy" style="text;html=1;strokeColor=none;fillColor=none;align=center;verticalAlign=middle;whiteSpace=wrap;rounded=0;" vertex="1" parent="1">
          <mxGeometry x="10" y="425" width="60" height="30" as="geometry" />
        </mxCell>
        <mxCell id="V-yhbQo1DXcv5XTAtJDy-40" value="ramka 1" style="text;html=1;strokeColor=none;fillColor=none;align=center;verticalAlign=middle;whiteSpace=wrap;rounded=0;" vertex="1" parent="1">
          <mxGeometry x="10" y="485" width="60" height="30" as="geometry" />
        </mxCell>
        <mxCell id="V-yhbQo1DXcv5XTAtJDy-41" value="ramka 2" style="text;html=1;strokeColor=none;fillColor=none;align=center;verticalAlign=middle;whiteSpace=wrap;rounded=0;" vertex="1" parent="1">
          <mxGeometry x="10" y="545" width="60" height="30" as="geometry" />
        </mxCell>
        <mxCell id="V-yhbQo1DXcv5XTAtJDy-42" value="ramka 3" style="text;html=1;strokeColor=none;fillColor=none;align=center;verticalAlign=middle;whiteSpace=wrap;rounded=0;" vertex="1" parent="1">
          <mxGeometry x="10" y="600" width="60" height="30" as="geometry" />
        </mxCell>
        <mxCell id="V-yhbQo1DXcv5XTAtJDy-43" value="&amp;lt;u&lt;span style=&quot;font-size: 6.94444px;&quot;&gt;&lt;sub style=&quot;font-size: 6px;&quot;&gt;32967&lt;/sub&gt;&lt;/span&gt;, u&lt;span style=&quot;font-size: 8.33333px;&quot;&gt;&lt;sub style=&quot;font-size: 6px;&quot;&gt;33134&lt;/sub&gt;&lt;/span&gt;&amp;gt;" style="rounded=0;whiteSpace=wrap;html=1;fillColor=#dae8fc;strokeColor=#6c8ebf;" vertex="1" parent="1">
          <mxGeometry x="390" y="700" width="240" height="40" as="geometry" />
        </mxCell>
        <mxCell id="V-yhbQo1DXcv5XTAtJDy-44" value="&amp;lt;u&lt;span style=&quot;font-size: 8.33333px;&quot;&gt;&lt;sub style=&quot;font-size: 6px;&quot;&gt;33135&lt;/sub&gt;&lt;/span&gt;, u&lt;span style=&quot;font-size: 6.94444px;&quot;&gt;&lt;sub style=&quot;font-size: 6px;&quot;&gt;33159&lt;/sub&gt;&lt;/span&gt;&amp;gt;" style="rounded=0;whiteSpace=wrap;html=1;fillColor=#fff2cc;strokeColor=#d6b656;" vertex="1" parent="1">
          <mxGeometry x="630" y="700" width="80" height="40" as="geometry" />
        </mxCell>
        <mxCell id="V-yhbQo1DXcv5XTAtJDy-46" value="" style="endArrow=none;dashed=1;html=1;dashPattern=1 3;strokeWidth=2;rounded=0;" edge="1" parent="1">
          <mxGeometry width="50" height="50" relative="1" as="geometry">
            <mxPoint x="400" y="650" as="sourcePoint" />
            <mxPoint x="460" y="690" as="targetPoint" />
          </mxGeometry>
        </mxCell>
        <mxCell id="V-yhbQo1DXcv5XTAtJDy-47" value="ramka n" style="text;html=1;strokeColor=none;fillColor=none;align=center;verticalAlign=middle;whiteSpace=wrap;rounded=0;" vertex="1" parent="1">
          <mxGeometry x="10" y="705" width="60" height="30" as="geometry" />
        </mxCell>
      </root>
    </mxGraphModel>
  </diagram>
</mxfile>
